<?xml version="1.0" encoding="UTF-8"?>
<svg id="_레이어_1" data-name="레이어_1" xmlns="http://www.w3.org/2000/svg" version="1.1" viewBox="0 0 250 350">
  <!-- Generator: Adobe Illustrator 29.8.4, SVG Export Plug-In . SVG Version: 2.1.1 Build 6)  -->
  <defs>
    <style>
      .st0 {
        fill: #efefef;
      }
    </style>
  </defs>
  <path class="st0" d="M220.18,45.98c-1.65,2.21-7.56,6.23-8.4,8.08-.41.9-.06,2.3-.2,3.35-.16,1.14,1.56,5.98-.81,7.27-4.15,2.26-6.82,2.29-11.19,3.02-2.07.35-41.2,29.72-47.15,40.1-2.32,4.06-3.92,8.69-5.39,13.37-2.33,7.44-8.11,13.31-15.51,15.77l-2.22.74c-1.76,1.17-3.09,2.91-3.33,5.07-.07.59-.12,1.21-.15,1.84-.71,13.02-4.1,25.75-9.64,37.55-9.66,20.56-23.11,48.72-29.36,59.75-4.29,7.57-18.46,32.99-22.96,40.24-.54.87.03,2.01,1.05,2.11,4.68.47,54.44.53,54.44.53,1.06,0,.96,4.8.8,5.65-.17.89-.61,1.05-1.43,1.16-6.72.89-59.23-.75-76.61-.65-4.61-1.16-2.82-6.11.06-8.35,4.7-3.65,10.48-5.9,13.49-11.71,14.88-35.38,29.56-71.02,43.41-106.86,1.7-4.39,3.32-8.84,4.89-13.32,3.3-9.37-6.17-18.12-15.26-14.11-2.83,1.25-5.68,2.4-8.54,3.36-9.77,3.28-11.75-1.32-14.02-9.89l-15.29-.06c-.8.1-2.77-1.89-2.77-2.41v-12.76l-15.23,9.44c-1.35.84-3.12-.07-3.21-1.66-.4-6.67-.82-21.3-.68-27.9.03-1.61,1.79-2.58,3.17-1.76,3.44,2.03,7.95,4.93,11.31,7.01,2.02,1.26,4.64-.2,4.64-2.58v-6.78c-5.83,1.11-7.51-6.62-1.09-6.75,13.76-.29,46.88-.11,48.26.79.32.21,1.3,1.35,1.3,1.6h0c0,6.48-2.24,12.76-6.35,17.76l-12.72,15.51c-2.32,2.17-3.71,4.51-.96,4.83,1.17.14,129.15-74.74,140.56-80.45.98-.49,2.91-1.82,3.73-.48.57.94-.1,1.87-.65,2.59ZM150.94,151.45l42.55-12.98c.8-.24,1.24-1.09,1-1.88l-3.55-11.51c-.19-.6-.83-.94-1.43-.75l-57.41,18.07c-1.54,1.28-.8,2.55-.61,3.89s1.6,6.37,2.37,8.82c.27.87.3,1.8.09,2.68l-8.3,34.41c.01,1.42,1.49,2.81,2.9,2.91l58.43,10.72c1.5.03,2.8-.58,3.22-2.1l7.3-40.35c.13-.7-.33-1.38-1.03-1.53l-45.49-9.53c-.46-.1-.49-.74-.04-.88ZM181.59,129.5l8.58,6.78c.23.18.19.54-.08.66-1.69.74-7.01,2.23-7.65,2.04-.47-.14-6.97-5.23-7.67-5.92-.41-.4-1.05-.8-.96-1.46l7.79-2.11ZM164.34,144.47l-8.63-6.89,7.91-2.62c.52.05,7.41,5.69,8.25,6.49,0,0,0,0,.01.01.41.4.22,1.09-.34,1.19-2.27.41-5.63,2.29-7.2,1.81ZM146.87,150.27l-9.26-7.35c1.95-.01,6.97-2.65,8.49-2.21.49.14,7.27,5.54,8,6.24h.01c.46.46.26,1.24-.36,1.41l-6.88,1.91ZM148.59,164.73l-8.07-1.47c1.31-1.17,7.26-7.69,8.31-8.01,1.57-.47,4.75.69,6.99,1.1.47.08.64.66.31.99l-7.53,7.38ZM158.77,165.85l7.93-7.27c.38-.16,6.06.91,6.95,1.13h.01c.55.14.73.83.31,1.22l-7.83,7.14-7.84-1.24.47-.98ZM192.06,164.23h0c-2.62,2.55-5.56,4.81-8.14,7.4l-7.84-1.25c-.15-.56.23-.65.48-.97,1.77-2.31,4.67-4.27,6.89-6.41.63-.61,1.51-.88,2.37-.75l5.91.9c.52.08.72.71.34,1.08ZM150.39,204.15s-28.96,45.58-27.15,47.98c1.72,2.28,23.86,2.43,29.09,1.96,2.06-.19,4.33-1.08,3.21-3.56-.57-1.27-6.44-2.72-8.13-3.82-6.03-3.9-1.04-7.22,2.48-10.57,5.37-5.12,13.51-13.31,19.18-19.26,3.04-3.19,1.4-8.47-2.91-9.39l-15.77-3.34ZM107.27,72.27c2.42,14.37,20.95,19.95,30.15,8.25,9.53-12.12-.08-30.53-15.72-28.64-9.54,1.15-15.98,11.21-14.43,20.39ZM136.48,284.78c-.6.45-.66,6.38-.16,6.63l66.38.13c2.95-.28,4.24-4.03,1.97-6.12-1.38-1.27-68.19-.64-68.19-.64ZM125,263.93l.16,65.44c.79,3.06,5.38,2.67,5.67-.49l-.15-65.77c-.5-1.2-1.85-2.08-3.17-1.87-1.13.19-2.57,1.41-2.51,2.68ZM146.93,302.44l-11.83,12.05c-1.43,1.46-1.46,3.79-.06,5.28,4.29,4.56,12.77,10.8,13.49,11.1,1.35.55,1.94-19.55,1.04-27.53-.15-1.29-1.73-1.84-2.64-.91ZM105.45,303.34c-.9,7.98-.31,28.08,1.04,27.53.72-.3,9.2-6.54,13.49-11.1,1.4-1.49,1.38-3.82-.06-5.28l-11.83-12.05c-.91-.93-2.5-.39-2.64.91ZM47.12,41.84v-11.66c0-2.88,2.39-5.19,5.27-5.09,5.33.18,13.29.32,16.86-.24,3.28-.52,3.28-5.5,0-6.1l-23.17.06c-2.93.68-4.46,2.62-4.76,5.58-.57,5.69.4,12.28.01,18.07.13.82.57,1.44,1.15,1.86,1.94,1.39,4.64-.11,4.64-2.49ZM41.3,150.82c-.34,3.7-.38,11.87.01,15.52.27,2.53,2.1,4.71,4.69,5.01,4.52.52,15.8.47,20.38.02,3.46-.34,3.78-4.94.56-6.09-5.43-.66-12.13.65-17.4-.05-1.38-.18-2.19-1.49-2.38-2.79-.59-4.12.49-9.18-.17-13.4-.4-1.21-2.31-1.8-3.5-1.53-1.59.35-2.05,1.9-2.19,3.32ZM166.6,24.81c4.51.49,9.73-.44,14.15.07,1.99.23,2.84,1.05,3.07,3.07.53,4.73-.45,10.3.07,15.12.62,2.8,5.36,2.49,5.75-.89.48-4.09.38-13.91,0-18.12-.26-2.88-2.09-5-5.02-5.32-5.5-.6-12.09.39-17.71.07-2.87,1.11-2.99,4.56-.33,6.01Z"/>
</svg>